<svg width="120" height="47" viewBox="0 0 120 47" fill="none" xmlns="http://www.w3.org/2000/svg">
<path d="M120 0L32.2093 41.825C24.9293 45.2713 18.8142 47 13.8692 47C8.26913 47 4.2041 44.8069 1.68408 40.4152C0.09907 37.5955 -0.365934 34.0206 0.284071 29.6848C0.934076 25.349 2.66409 20.7335 5.46411 15.8215C7.79913 11.8493 11.6242 6.62957 16.9492 0.156647C15.143 3.33809 13.8185 6.8313 13.0292 10.4954C11.6292 17.1809 12.8892 22.0874 16.8092 25.2203C18.6742 26.6805 21.2392 27.4134 24.5093 27.4134C27.1193 27.4134 30.0593 26.9435 33.3293 26.0036L120 0Z" fill="black"/>
</svg>
